# xmcd
#
# Track frame offsets:
#	150
#	8333
#	23849
#	39924
#	59098
#	76864
#	96691
#	111137
#	132123
#	154485
#
# Disc length: 2419 seconds
#
# Revision: 1
# Processed by: cddbd v1.5.2PL0 Copyright (c) Steve Scherf et al.
# Submitted via: audiograbber 1.83.01
#
DISCID=7809710a
DTITLE=Stonecreep - The deathmarch crushes on
DYEAR=2011
DGENRE=Death Metal
TTITLE0=Brinstar
TTITLE1=The Glorious Deathmarch
TTITLE2=In the age of avarice
TTITLE3=Cascading horizons of black
TTITLE4=Fucked up tonight
TTITLE5=The faithful departed
TTITLE6=Prelude to the silver storm
TTITLE7=The final stand
TTITLE8=Kiss of the northern sky
TTITLE9=Peace of mind
EXTD=
EXTT0=
EXTT1=
EXTT2=
EXTT3=
EXTT4=
EXTT5=
EXTT6=
EXTT7=
EXTT8=
EXTT9=
PLAYORDER=
